# 3ds Max Wavefront OBJ Exporter v0.99 - (c)2007 guruware
# File Created: 25.01.2025 00:44:10

mtllib P_BrosseADent.mtl

#
# object P_BrosseADent
#

v  -85.3991 0.0000 -7.3365
v  56.0317 0.0000 -7.3365
v  56.0317 0.0000 7.3365
v  -85.3991 0.0000 7.3365
v  56.0317 5.0061 7.3365
v  56.0317 5.0061 -7.3365
v  -85.3991 5.0061 -7.3365
v  -85.3991 5.0061 7.3365
v  56.0317 2.5030 9.4152
v  -85.3991 2.5030 9.4152
v  108.1781 0.6255 10.7117
v  108.1781 0.6255 -10.7117
v  108.1781 2.5030 -11.3375
v  108.1781 2.5030 11.3375
v  -85.3991 2.5030 -9.4152
v  56.0317 2.5030 -9.4152
v  -85.3991 4.3803 8.8956
v  -85.3991 4.3803 -8.8956
v  -85.3991 0.6258 -8.8956
v  56.0317 0.6258 -8.8956
v  56.0317 0.6258 8.8956
v  -85.3991 0.6258 8.8956
v  56.0317 4.3803 8.8956
v  56.0317 4.3803 -8.8956
v  58.3261 -1.0432 -9.0034
v  58.3261 -1.0432 9.0034
v  58.3261 -0.1990 -11.5361
v  58.3261 2.5069 -12.3804
v  58.3261 5.2051 -11.5361
v  58.3261 6.0493 -9.0034
v  58.3261 6.0493 9.0034
v  58.3261 5.2051 11.5361
v  58.3261 2.4992 12.3804
v  58.3261 -0.1990 11.5361
v  105.8837 -1.0432 -9.0034
v  105.8837 -1.0432 9.0034
v  105.8837 -0.1990 -11.5361
v  105.8837 2.5069 -12.3804
v  105.8837 5.2051 -11.5361
v  105.8837 6.0493 -9.0034
v  56.3831 18.6568 -10.9464
v  56.3831 18.6568 10.9464
v  107.8267 18.6568 10.9464
v  107.8267 18.6568 -10.9464
v  105.8837 5.2051 11.5361
v  105.8837 6.0493 9.0034
v  105.8837 2.4992 12.3804
v  105.8837 -0.1990 11.5361
v  108.1781 -0.0004 -8.8342
v  108.1781 -0.0004 8.8342
v  108.1781 4.3806 -10.7117
v  108.1781 5.0064 -8.8342
v  108.1781 5.0064 8.8342
v  108.1781 4.3806 10.7117
# 54 vertices

vn -0.6668 -0.7317 -0.1414
vn -0.2534 -0.9551 -0.1534
vn -0.2534 -0.9551 0.1534
vn -0.6668 -0.7317 0.1414
vn -0.2534 0.9551 0.1534
vn -0.2534 0.9551 -0.1534
vn -0.6668 0.7317 -0.1414
vn -0.6668 0.7317 0.1414
vn -0.4537 -0.1235 0.8825
vn -0.4536 0.1236 0.8826
vn -0.6781 0.0989 0.7283
vn -0.6781 -0.0989 0.7283
vn 0.7867 -0.4365 0.4365
vn 0.7867 -0.4365 -0.4365
vn 0.8142 -0.0972 -0.5724
vn 0.8142 0.0972 0.5724
vn 0.8143 -0.0970 0.5723
vn -0.6781 -0.0989 -0.7283
vn -0.6781 0.0989 -0.7283
vn -0.4537 0.1235 -0.8825
vn -0.4536 -0.1236 -0.8826
vn -0.6196 0.5232 0.5851
vn -0.6196 0.5232 -0.5851
vn -0.6196 -0.5232 -0.5851
vn -0.4351 -0.6404 -0.6329
vn -0.4351 -0.6404 0.6329
vn -0.6196 -0.5232 0.5851
vn -0.4351 0.6404 0.6329
vn -0.4351 0.6404 -0.6329
vn -0.2589 -0.9498 -0.1755
vn -0.2589 -0.9498 0.1755
vn -0.3692 -0.6317 -0.6816
vn -0.4104 0.0004 -0.9119
vn -0.3692 0.6320 -0.6814
vn -0.5902 0.6330 -0.5009
vn -0.5902 0.6330 0.5009
vn -0.3692 0.6317 0.6816
vn -0.4104 -0.0004 0.9119
vn -0.3692 -0.6320 0.6814
vn 0.2097 -0.9651 -0.1566
vn 0.2097 -0.9651 0.1566
vn 0.2189 -0.6836 -0.6962
vn 0.2038 0.0005 -0.9790
vn 0.2189 0.6839 -0.6960
vn 0.5489 0.6770 -0.4903
vn -0.6133 0.4976 -0.6133
vn -0.6133 0.4976 0.6133
vn 0.6133 0.4976 0.6133
vn 0.6133 0.4976 -0.6133
vn 0.2189 0.6836 0.6963
vn 0.5489 0.6770 0.4903
vn 0.2038 -0.0005 0.9790
vn 0.2189 -0.6839 0.6960
vn 0.8173 -0.5688 -0.0923
vn 0.8173 -0.5688 0.0923
vn 0.8143 0.0970 -0.5723
vn 0.7867 0.4365 -0.4365
vn 0.8173 0.5688 -0.0923
vn 0.8173 0.5688 0.0923
vn 0.7867 0.4365 0.4365
# 60 vertex normals

vt 1.0000 0.8896 0.0000
vt 0.0000 0.8896 0.0000
vt 0.0000 0.1104 0.0000
vt 1.0000 0.1104 0.0000
vt 1.0000 0.5000 0.0000
vt 0.0000 0.5000 0.0000
vt 0.0000 0.0000 0.0000
vt 1.0000 0.0000 0.0000
vt 1.0000 1.0000 0.0000
vt 0.0000 1.0000 0.0000
vt 0.1104 0.0000 0.0000
vt 0.8896 0.0000 0.0000
vt 0.8896 1.0000 0.0000
vt 0.1104 1.0000 0.0000
# 14 texture coords

o P_BrosseADent
g P_BrosseADent
usemtl wire_202221104
s 1
f 1/1/1 2/2/2 3/3/3 4/4/4 
f 5/4/5 6/1/6 7/2/7 8/3/8 
s 2
f 9/5/9 9/5/10 10/6/11 10/6/12 
s 4
f 11/7/13 12/8/14 13/5/15 14/6/16 
f 14/6/17 11/7/13 14/6/16 
s 2
f 15/5/18 15/5/19 16/6/20 16/6/21 
s 4
f 10/5/12 10/5/11 17/9/22 15/6/19 
f 17/9/22 18/10/23 15/6/19 
f 15/6/18 10/5/12 15/6/19 
s 1
f 2/2/2 1/1/1 19/9/24 20/10/25 
f 4/4/4 3/3/3 21/7/26 22/8/27 
f 5/4/5 8/3/8 17/7/22 23/8/28 
f 7/2/7 6/1/6 24/9/29 18/10/23 
s 2
f 9/5/9 10/6/12 22/7/27 21/8/26 
f 10/6/11 9/5/10 23/9/28 17/10/22 
f 15/5/18 16/6/21 20/7/25 19/8/24 
f 16/6/20 15/5/19 18/9/23 24/10/29 
s off
f 3/11/3 2/12/2 25/12/30 26/11/31 
f 2/12/2 20/8/25 27/8/32 25/12/30 
f 20/8/25 16/5/21 28/5/33 27/8/32 
f 16/5/21 16/5/20 28/5/33 
f 16/5/20 24/9/29 29/9/34 28/5/33 
f 24/9/29 6/13/6 30/13/35 29/9/34 
f 6/13/6 5/14/5 31/14/36 30/13/35 
f 5/14/5 23/10/28 32/10/37 31/14/36 
f 23/10/28 9/6/10 33/6/38 32/10/37 
f 9/6/10 9/6/9 33/6/38 
f 9/6/9 21/7/26 34/7/39 33/6/38 
f 21/7/26 3/11/3 26/11/31 34/7/39 
f 26/11/31 25/12/30 35/12/40 36/11/41 
f 25/12/30 27/8/32 37/8/42 35/12/40 
f 27/8/32 28/5/33 38/5/43 37/8/42 
f 28/5/33 29/9/34 39/9/44 38/5/43 
f 29/9/34 30/13/35 40/13/45 39/9/44 
f 41/13/46 42/14/47 43/14/48 44/13/49 
f 31/14/36 32/10/37 45/10/50 46/14/51 
f 32/10/37 33/6/38 47/6/52 45/10/50 
f 33/6/38 34/7/39 48/7/53 47/6/52 
f 34/7/39 26/11/31 36/11/41 48/7/53 
f 36/11/41 35/12/40 49/12/54 50/11/55 
f 35/12/40 37/8/42 12/8/14 49/12/54 
f 37/8/42 38/5/43 13/5/15 12/8/14 
f 38/5/43 13/5/56 13/5/15 
f 38/5/43 39/9/44 51/9/57 13/5/56 
f 39/9/44 40/13/45 52/13/58 51/9/57 
f 40/13/45 46/14/51 53/14/59 52/13/58 
f 46/14/51 45/10/50 54/10/60 53/14/59 
f 45/10/50 47/6/52 14/6/16 54/10/60 
f 47/6/52 14/6/17 14/6/16 
f 47/6/52 48/7/53 11/7/13 14/6/17 
f 48/7/53 36/11/41 50/11/55 11/7/13 
f 30/13/35 31/14/36 42/14/47 41/13/46 
f 31/14/36 46/14/51 43/14/48 42/14/47 
f 46/14/51 40/13/45 44/13/49 43/14/48 
f 40/13/45 30/13/35 41/13/46 44/13/49 
s 4
f 19/7/24 22/8/27 10/5/12 15/6/18 
f 8/13/8 7/14/7 18/10/23 17/9/22 
f 1/11/1 4/12/4 22/8/27 19/7/24 
f 50/11/55 49/12/54 12/8/14 11/7/13 
f 51/9/57 54/10/60 14/6/16 13/5/56 
f 13/5/15 13/5/56 14/6/16 
f 52/13/58 53/14/59 54/10/60 51/9/57 
# 54 polygons - 8 triangles

