# 3ds Max Wavefront OBJ Exporter v0.99 - (c)2007 guruware
# File Created: 25.01.2025 00:44:10

mtllib P_BrosseACheveux.mtl

#
# object P_BrosseACheveux
#

v  3.3661 -33.0118 -3.2098
v  5.7211 -20.2441 -7.2990
v  7.0717 -20.2441 -0.0000
v  4.1607 -33.0118 -0.0000
v  1.2857 -33.0118 -5.1936
v  2.1853 -20.2441 -11.8100
v  -1.2857 -33.0118 -5.1936
v  -2.1853 -20.2441 -11.8100
v  -3.3661 -33.0118 -3.2098
v  -5.7211 -20.2441 -7.2990
v  -4.1607 -33.0118 0.0000
v  -7.0717 -20.2441 0.0000
v  -3.3661 -33.0118 3.2098
v  -5.7211 -20.2441 7.2990
v  -1.2857 -33.0118 5.1936
v  -2.1853 -20.2441 11.8100
v  1.2857 -33.0118 5.1936
v  2.1853 -20.2441 11.8100
v  3.3661 -33.0118 3.2098
v  5.7211 -20.2441 7.2990
v  8.6776 -7.4765 -0.0000
v  7.0203 -7.4765 -8.6162
v  6.9738 5.2912 -7.6344
v  8.6201 5.2912 -0.0000
v  2.6815 -7.4765 -13.9413
v  2.6638 5.2912 -12.3528
v  -2.6815 -7.4765 -13.9413
v  -2.6638 5.2912 -12.3528
v  -7.0203 -7.4765 -8.6162
v  -6.9738 5.2912 -7.6344
v  -8.6776 -7.4765 0.0000
v  -8.6201 5.2912 0.0000
v  -7.0203 -7.4765 8.6162
v  -6.9738 5.2912 7.6344
v  -2.6815 -7.4765 13.9413
v  -2.6638 5.2912 12.3528
v  2.6815 -7.4765 13.9413
v  2.6638 5.2912 12.3528
v  7.0203 -7.4765 8.6162
v  6.9738 5.2912 7.6344
v  7.7199 18.0589 -0.0000
v  6.2456 18.0589 -5.5292
v  6.5125 30.8265 -4.8730
v  8.0498 30.8265 -0.0000
v  2.3856 18.0589 -8.9465
v  2.4875 30.8265 -7.8846
v  -2.3856 18.0589 -8.9465
v  -2.4875 30.8265 -7.8846
v  -6.2455 18.0589 -5.5292
v  -6.5125 30.8265 -4.8730
v  -7.7199 18.0589 0.0000
v  -8.0498 30.8265 0.0000
v  -6.2455 18.0589 5.5292
v  -6.5125 30.8265 4.8730
v  -2.3856 18.0589 8.9465
v  -2.4875 30.8265 7.8846
v  2.3856 18.0589 8.9465
v  2.4875 30.8265 7.8846
v  6.2456 18.0589 5.5292
v  6.5125 30.8265 4.8730
v  6.4576 43.5942 -5.7506
v  6.9112 56.3618 -10.9828
v  8.5427 56.3618 -0.0000
v  7.9820 43.5942 -0.0000
v  2.4666 43.5942 -9.3047
v  2.6398 56.3618 -17.7706
v  -2.4666 43.5942 -9.3046
v  -2.6398 56.3618 -17.7706
v  -6.4576 43.5942 -5.7506
v  -6.9112 59.8669 -10.9828
v  -7.9820 43.5942 0.0000
v  -8.5427 56.3618 0.0000
v  -6.4576 43.5942 5.7506
v  -6.9112 59.8669 10.9828
v  -2.4666 43.5942 9.3046
v  -2.6398 56.3618 17.7706
v  2.4666 43.5942 9.3046
v  2.6398 56.3618 17.7706
v  6.4576 43.5942 5.7506
v  6.9112 56.3618 10.9828
v  6.8364 69.1295 -14.3835
v  6.6766 81.8971 -15.7206
v  8.2527 81.8971 -0.0000
v  8.4503 69.1295 -0.0000
v  2.6113 69.1295 -23.2730
v  2.5502 81.8971 -25.4365
v  -2.6113 69.1295 -23.2730
v  -2.5502 81.8971 -25.4365
v  -6.8364 69.1295 -14.3835
v  -6.6766 81.8971 -15.7206
v  -23.4405 68.4201 -18.8385
v  -27.2495 69.2457 0.0000
v  -27.7120 82.0133 0.0000
v  -23.3288 81.9766 -20.2643
v  -23.4405 68.4201 18.8385
v  -23.3288 81.9766 20.2644
v  -2.6113 69.1295 23.2730
v  -2.5502 81.8971 25.4365
v  -6.6766 81.8971 15.7206
v  -6.8364 69.1295 14.3835
v  2.6113 69.1295 23.2730
v  2.5502 81.8971 25.4365
v  6.8364 69.1295 14.3835
v  6.6766 81.8971 15.7206
v  8.0551 94.6648 -0.0000
v  6.5167 94.6648 -14.5583
v  6.6310 107.4324 -10.8230
v  8.1964 107.4324 -0.0000
v  2.4892 94.6648 -23.5558
v  2.5328 107.4324 -17.5119
v  -2.4892 94.6648 -23.5558
v  -2.5328 107.4324 -17.5119
v  -6.5167 94.6648 -14.5583
v  -6.6310 102.3390 -10.8230
v  -26.8542 94.7810 0.0000
v  -25.2896 112.0957 0.0000
v  -23.3101 106.3878 -14.2045
v  -23.1349 95.6273 -19.0192
v  -23.1349 95.6273 19.0192
v  -23.3101 106.3878 14.2045
v  -6.5167 94.6648 14.5583
v  -2.4892 94.6648 23.5558
v  -2.5328 107.4324 17.5119
v  -6.6310 102.3390 10.8230
v  2.4892 94.6648 23.5558
v  2.5328 107.4324 17.5119
v  6.5167 94.6648 14.5583
v  6.6310 107.4324 10.8230
v  -23.5486 56.5993 -14.4479
v  -25.6243 51.0180 0.0000
v  -23.5486 56.5993 14.4479
v  3.9615 116.5222 -5.5878
v  4.8966 116.5222 -0.0000
v  1.5131 116.5222 -9.0412
v  -1.5131 116.5222 -9.0412
v  -3.9615 116.5222 -5.5878
v  -8.1964 107.4324 0.0000
v  -4.8966 116.5222 0.0000
v  -3.9615 116.5222 5.5878
v  -1.5131 116.5222 9.0412
v  1.5131 116.5222 9.0412
v  3.9615 116.5222 5.5878
v  1.5387 118.0929 -3.3310
v  1.9020 118.0929 -0.0000
v  0.5877 118.0929 -5.3897
v  -0.5877 118.0929 -5.3897
v  -1.5387 118.0929 -3.3310
v  -1.9020 118.0929 -0.0000
v  -1.5387 118.0929 3.3310
v  -0.5877 118.0929 5.3897
v  0.5877 118.0929 5.3897
v  1.5387 118.0929 3.3310
v  2.0803 -33.9884 -0.0000
v  1.6830 -33.9884 -1.6049
v  1.6830 -33.9884 1.6049
v  0.6429 -33.9884 2.5968
v  -0.6429 -33.9884 2.5968
v  -1.6830 -33.9884 1.6049
v  -2.0803 -33.9884 0.0000
v  -1.6830 -33.9884 -1.6049
v  -0.6429 -33.9884 -2.5968
v  0.6429 -33.9884 -2.5968
v  0.0000 -34.5110 -0.0000
v  0.0000 118.6227 -0.0000
# 164 vertices

vn 0.6743 -0.6356 -0.3760
vn 0.8870 -0.2113 -0.4105
vn 0.9850 -0.1728 -0.0000
vn 0.8028 -0.5963 -0.0000
vn 0.2765 -0.7048 -0.6533
vn 0.4103 -0.2985 -0.8617
vn -0.2765 -0.7048 -0.6533
vn -0.4103 -0.2985 -0.8617
vn -0.6743 -0.6356 -0.3760
vn -0.8870 -0.2113 -0.4105
vn -0.8028 -0.5963 0.0000
vn -0.9850 -0.1728 -0.0000
vn -0.6743 -0.6356 0.3760
vn -0.8870 -0.2113 0.4105
vn -0.2765 -0.7048 0.6533
vn -0.4103 -0.2985 0.8617
vn 0.2765 -0.7048 0.6533
vn 0.4103 -0.2985 0.8617
vn 0.6743 -0.6356 0.3760
vn 0.8870 -0.2113 0.4105
vn 0.9982 -0.0598 -0.0000
vn 0.9012 -0.0488 -0.4307
vn 0.8840 0.0821 -0.4603
vn 0.9993 0.0373 0.0000
vn 0.4187 -0.0256 -0.9078
vn 0.3948 0.1773 -0.9015
vn -0.4187 -0.0256 -0.9078
vn -0.3948 0.1773 -0.9015
vn -0.9012 -0.0488 -0.4307
vn -0.8840 0.0821 -0.4603
vn -0.9982 -0.0598 -0.0000
vn -0.9993 0.0373 0.0000
vn -0.9012 -0.0488 0.4307
vn -0.8840 0.0821 0.4603
vn -0.4187 -0.0256 0.9078
vn -0.3948 0.1773 0.9015
vn 0.4187 -0.0256 0.9078
vn 0.3948 0.1773 0.9015
vn 0.9012 -0.0488 0.4307
vn 0.8840 0.0821 0.4603
vn 0.9997 0.0225 -0.0000
vn 0.8514 0.0717 -0.5195
vn 0.8219 -0.0118 -0.5695
vn 0.9999 -0.0102 -0.0000
vn 0.3542 0.1653 -0.9204
vn 0.3225 -0.0144 -0.9464
vn -0.3542 0.1653 -0.9204
vn -0.3225 -0.0144 -0.9464
vn -0.8514 0.0717 -0.5195
vn -0.8219 -0.0118 -0.5695
vn -0.9997 0.0225 0.0000
vn -0.9999 -0.0102 -0.0000
vn -0.8514 0.0717 0.5195
vn -0.8219 -0.0118 0.5695
vn -0.3542 0.1653 0.9204
vn -0.3225 -0.0144 0.9464
vn 0.3542 0.1653 0.9204
vn 0.3225 -0.0144 0.9464
vn 0.8514 0.0717 0.5195
vn 0.8219 -0.0118 0.5695
vn 0.8576 -0.1289 -0.4979
vn 0.9278 -0.1328 -0.3487
vn 0.9998 -0.0183 -0.0000
vn 0.9998 -0.0194 -0.0000
vn 0.3536 -0.3371 -0.8725
vn 0.4504 -0.4199 -0.7879
vn -0.3536 -0.3371 -0.8725
vn -0.4953 -0.4153 -0.7630
vn -0.8567 -0.1066 -0.5046
vn -0.5409 -0.5018 -0.6750
vn -0.9998 -0.0194 -0.0000
vn -0.6058 -0.7956 0.0000
vn -0.8567 -0.1066 0.5046
vn -0.5409 -0.5018 0.6750
vn -0.3536 -0.3371 0.8725
vn -0.4953 -0.4153 0.7630
vn 0.3536 -0.3371 0.8725
vn 0.4504 -0.4199 0.7879
vn 0.8576 -0.1289 0.4979
vn 0.9278 -0.1328 0.3487
vn 0.9586 -0.0446 -0.2811
vn 0.9664 0.0102 -0.2569
vn 0.9999 0.0155 -0.0000
vn 0.9999 0.0114 -0.0000
vn 0.5115 -0.2376 -0.8258
vn 0.5279 -0.0067 -0.8493
vn -0.5115 -0.2376 -0.8258
vn -0.5279 -0.0067 -0.8493
vn -0.4327 -0.2055 -0.8778
vn -0.4531 -0.0003 -0.8915
vn -0.5005 -0.1910 -0.8444
vn -0.9981 -0.0616 0.0000
vn -0.9999 0.0154 -0.0000
vn -0.5009 -0.0005 -0.8655
vn -0.5005 -0.1910 0.8444
vn -0.5009 -0.0005 0.8655
vn -0.5115 -0.2376 0.8258
vn -0.5279 -0.0067 0.8493
vn -0.4531 -0.0003 0.8915
vn -0.4327 -0.2055 0.8778
vn 0.5115 -0.2376 0.8258
vn 0.5279 -0.0067 0.8493
vn 0.9586 -0.0446 0.2811
vn 0.9664 0.0102 0.2569
vn 1.0000 0.0022 -0.0000
vn 0.9617 0.0549 -0.2687
vn 0.9077 0.2599 -0.3295
vn 0.9863 0.1651 -0.0000
vn 0.5151 0.2441 -0.8217
vn 0.4433 0.5001 -0.7439
vn -0.5151 0.2441 -0.8217
vn -0.5182 0.4970 -0.6960
vn -0.4549 0.2480 -0.8553
vn -0.4889 0.5767 -0.6546
vn -0.9969 0.0781 0.0000
vn -0.5367 0.8438 -0.0000
vn -0.4457 0.6262 -0.6397
vn -0.4891 0.2183 -0.8445
vn -0.4891 0.2183 0.8445
vn -0.4457 0.6262 0.6397
vn -0.4549 0.2480 0.8553
vn -0.5151 0.2441 0.8217
vn -0.5182 0.4970 0.6960
vn -0.4889 0.5767 0.6546
vn 0.5151 0.2441 0.8217
vn 0.4433 0.5001 0.7439
vn 0.9617 0.0549 0.2687
vn 0.9077 0.2599 0.3295
vn -0.4456 -0.6128 -0.6526
vn -0.5268 -0.8500 -0.0000
vn -0.4456 -0.6128 0.6526
vn 0.6897 0.6751 -0.2617
vn 0.7687 0.6396 -0.0000
vn 0.3265 0.7727 -0.5444
vn -0.3265 0.7727 -0.5444
vn -0.7308 0.6189 -0.2877
vn -0.4853 0.8744 -0.0000
vn -0.7687 0.6396 -0.0000
vn -0.7308 0.6189 0.2877
vn -0.3265 0.7727 0.5444
vn 0.3265 0.7727 0.5444
vn 0.6897 0.6751 0.2617
vn 0.3468 0.9336 -0.0896
vn 0.3747 0.9271 -0.0000
vn 0.2154 0.9458 -0.2431
vn -0.2154 0.9458 -0.2431
vn -0.3468 0.9336 -0.0896
vn -0.3747 0.9271 -0.0000
vn -0.3468 0.9336 0.0896
vn -0.2154 0.9458 0.2431
vn 0.2154 0.9458 0.2431
vn 0.3468 0.9336 0.0896
vn 0.3489 -0.9372 -0.0000
vn 0.2885 -0.9445 -0.1572
vn 0.2885 -0.9445 0.1572
vn 0.1149 -0.9573 0.2653
vn -0.1149 -0.9573 0.2653
vn -0.2885 -0.9445 0.1572
vn -0.3489 -0.9372 0.0000
vn -0.2885 -0.9445 -0.1572
vn -0.1149 -0.9573 -0.2653
vn 0.1149 -0.9573 -0.2653
vn -0.0000 -1.0000 -0.0000
vn 0.0000 1.0000 -0.0000
# 164 vertex normals

vt 0.8500 0.0000 1.0000
vt 0.8500 0.0833 1.0000
vt 0.7500 0.0833 1.0000
vt 0.7500 0.0000 1.0000
vt 0.9500 0.0000 1.0000
vt 0.9500 0.0833 1.0000
vt 0.0500 0.0000 1.0000
vt 0.0500 0.0833 1.0000
vt -0.0500 0.0833 1.0000
vt -0.0500 0.0000 1.0000
vt 0.1500 0.0000 1.0000
vt 0.1500 0.0833 1.0000
vt 0.2500 0.0000 1.0000
vt 0.2500 0.0833 1.0000
vt 0.3500 0.0000 1.0000
vt 0.3500 0.0833 1.0000
vt 0.4500 0.0000 1.0000
vt 0.4500 0.0833 1.0000
vt 0.5500 0.0000 1.0000
vt 0.5500 0.0833 1.0000
vt 0.6500 0.0000 1.0000
vt 0.6500 0.0833 1.0000
vt 0.7500 0.1667 1.0000
vt 0.8500 0.1667 1.0000
vt 0.8500 0.2500 1.0000
vt 0.7500 0.2500 1.0000
vt 0.9500 0.1667 1.0000
vt 0.9500 0.2500 1.0000
vt 0.0500 0.1667 1.0000
vt 0.0500 0.2500 1.0000
vt -0.0500 0.2500 1.0000
vt -0.0500 0.1667 1.0000
vt 0.1500 0.1667 1.0000
vt 0.1500 0.2500 1.0000
vt 0.2500 0.1667 1.0000
vt 0.2500 0.2500 1.0000
vt 0.3500 0.1667 1.0000
vt 0.3500 0.2500 1.0000
vt 0.4500 0.1667 1.0000
vt 0.4500 0.2500 1.0000
vt 0.5500 0.1667 1.0000
vt 0.5500 0.2500 1.0000
vt 0.6500 0.1667 1.0000
vt 0.6500 0.2500 1.0000
vt 0.7500 0.3333 1.0000
vt 0.8500 0.3333 1.0000
vt 0.8500 0.4167 1.0000
vt 0.7500 0.4167 1.0000
vt 0.9500 0.3333 1.0000
vt 0.9500 0.4167 1.0000
vt 0.0500 0.3333 1.0000
vt 0.0500 0.4167 1.0000
vt -0.0500 0.4167 1.0000
vt -0.0500 0.3333 1.0000
vt 0.1500 0.3333 1.0000
vt 0.1500 0.4167 1.0000
vt 0.2500 0.3333 1.0000
vt 0.2500 0.4167 1.0000
vt 0.3500 0.3333 1.0000
vt 0.3500 0.4167 1.0000
vt 0.4500 0.3333 1.0000
vt 0.4500 0.4167 1.0000
vt 0.5500 0.3333 1.0000
vt 0.5500 0.4167 1.0000
vt 0.6500 0.3333 1.0000
vt 0.6500 0.4167 1.0000
vt 0.8500 0.5000 1.0000
vt 0.8500 0.5833 1.0000
vt 0.7500 0.5833 1.0000
vt 0.7500 0.5000 1.0000
vt 0.9500 0.5000 1.0000
vt 0.9500 0.5833 1.0000
vt 0.0500 0.5000 1.0000
vt 0.0500 0.5833 1.0000
vt -0.0500 0.5833 1.0000
vt -0.0500 0.5000 1.0000
vt 0.1500 0.5000 1.0000
vt 0.1500 0.5833 1.0000
vt 0.2500 0.5000 1.0000
vt 0.2500 0.5833 1.0000
vt 0.3500 0.5000 1.0000
vt 0.3500 0.5833 1.0000
vt 0.4500 0.5000 1.0000
vt 0.4500 0.5833 1.0000
vt 0.5500 0.5000 1.0000
vt 0.5500 0.5833 1.0000
vt 0.6500 0.5000 1.0000
vt 0.6500 0.5833 1.0000
vt 0.8500 0.6667 1.0000
vt 0.8500 0.7500 1.0000
vt 0.7500 0.7500 1.0000
vt 0.7500 0.6667 1.0000
vt 0.9500 0.6667 1.0000
vt 0.9500 0.7500 1.0000
vt 0.0500 0.6667 1.0000
vt 0.0500 0.7500 1.0000
vt -0.0500 0.7500 1.0000
vt -0.0500 0.6667 1.0000
vt 0.1500 0.6667 1.0000
vt 0.1500 0.7500 1.0000
vt 0.2500 0.6667 1.0000
vt 0.2500 0.7500 1.0000
vt 0.3500 0.6667 1.0000
vt 0.3500 0.7500 1.0000
vt 0.4500 0.6667 1.0000
vt 0.4500 0.7500 1.0000
vt 0.5500 0.6667 1.0000
vt 0.5500 0.7500 1.0000
vt 0.6500 0.6667 1.0000
vt 0.6500 0.7500 1.0000
vt 0.7500 0.8333 1.0000
vt 0.8500 0.8333 1.0000
vt 0.8500 0.9167 1.0000
vt 0.7500 0.9167 1.0000
vt 0.9500 0.8333 1.0000
vt 0.9500 0.9167 1.0000
vt 0.0500 0.8333 1.0000
vt 0.0500 0.9167 1.0000
vt -0.0500 0.9167 1.0000
vt -0.0500 0.8333 1.0000
vt 0.1500 0.8333 1.0000
vt 0.1500 0.9167 1.0000
vt 0.2500 0.8333 1.0000
vt 0.2500 0.9167 1.0000
vt 0.3500 0.8333 1.0000
vt 0.3500 0.9167 1.0000
vt 0.4500 0.8333 1.0000
vt 0.4500 0.9167 1.0000
vt 0.5500 0.8333 1.0000
vt 0.5500 0.9167 1.0000
vt 0.6500 0.8333 1.0000
vt 0.6500 0.9167 1.0000
vt 0.8500 1.0000 1.0000
vt 0.7500 1.0000 1.0000
vt 0.9500 1.0000 1.0000
vt 0.0500 1.0000 1.0000
vt -0.0500 1.0000 1.0000
vt 0.1500 1.0000 1.0000
vt 0.2500 1.0000 1.0000
vt 0.3500 1.0000 1.0000
vt 0.4500 1.0000 1.0000
vt 0.5500 1.0000 1.0000
vt 0.6500 1.0000 1.0000
vt 0.8781 1.0000 0.6180
vt 0.6618 1.0000 -0.0000
vt 0.3837 1.0000 -0.6180
vt 0.1500 1.0000 -1.0000
vt 0.0500 1.0000 -1.0000
vt 0.1219 1.0000 -0.6180
vt 0.6317 0.0000 0.5191
vt 0.6817 0.0000 0.5191
vt 0.3382 0.0000 0.0000
vt 0.4258 0.0000 0.0191
vt 0.1219 0.0000 -0.6180
vt 0.3176 0.0000 -0.2899
vt 0.0500 0.0000 -1.0000
vt 0.2817 0.0000 -0.4809
vt 0.1500 0.0000 -1.0000
vt 0.3317 0.0000 -0.4809
vt 0.3837 0.0000 -0.6180
vt 0.4485 0.0000 -0.2899
vt 0.6618 0.0000 -0.0000
vt 0.5876 0.0000 0.0191
vt 0.8781 0.0000 0.6180
vt 0.6957 0.0000 0.3281
vt 0.7317 0.0000 0.5191
vt 0.5134 0.0000 0.0382
vt 0.5445 1.0000 0.1382
# 168 texture coords

o P_BrosseACheveux
g P_BrosseACheveux
usemtl wire_202221104
s 8
f 1/1/1 2/2/2 3/3/3 4/4/4 
f 5/5/5 6/6/6 2/2/2 1/1/1 
f 7/7/7 8/8/8 6/9/6 5/10/5 
f 7/7/7 9/11/9 10/12/10 8/8/8 
f 9/11/9 11/13/11 12/14/12 10/12/10 
f 13/15/13 14/16/14 12/14/12 11/13/11 
f 15/17/15 16/18/16 14/16/14 13/15/13 
f 17/19/17 18/20/18 16/18/16 15/17/15 
f 17/19/17 19/21/19 20/22/20 18/20/18 
f 19/21/19 4/4/4 3/3/3 20/22/20 
f 21/23/21 22/24/22 23/25/23 24/26/24 
f 22/24/22 25/27/25 26/28/26 23/25/23 
f 27/29/27 28/30/28 26/31/26 25/32/25 
f 29/33/29 30/34/30 28/30/28 27/29/27 
f 31/35/31 32/36/32 30/34/30 29/33/29 
f 31/35/31 33/37/33 34/38/34 32/36/32 
f 33/37/33 35/39/35 36/40/36 34/38/34 
f 37/41/37 38/42/38 36/40/36 35/39/35 
f 39/43/39 40/44/40 38/42/38 37/41/37 
f 21/23/21 24/26/24 40/44/40 39/43/39 
f 41/45/41 42/46/42 43/47/43 44/48/44 
f 42/46/42 45/49/45 46/50/46 43/47/43 
f 47/51/47 48/52/48 46/53/46 45/54/45 
f 49/55/49 50/56/50 48/52/48 47/51/47 
f 51/57/51 52/58/52 50/56/50 49/55/49 
f 51/57/51 53/59/53 54/60/54 52/58/52 
f 53/59/53 55/61/55 56/62/56 54/60/54 
f 57/63/57 58/64/58 56/62/56 55/61/55 
f 59/65/59 60/66/60 58/64/58 57/63/57 
f 41/45/41 44/48/44 60/66/60 59/65/59 
f 61/67/61 62/68/62 63/69/63 64/70/64 
f 65/71/65 66/72/66 62/68/62 61/67/61 
f 67/73/67 68/74/68 66/75/66 65/76/65 
f 67/73/67 69/77/69 70/78/70 68/74/68 
f 69/77/69 71/79/71 72/80/72 70/78/70 
f 73/81/73 74/82/74 72/80/72 71/79/71 
f 75/83/75 76/84/76 74/82/74 73/81/73 
f 77/85/77 78/86/78 76/84/76 75/83/75 
f 77/85/77 79/87/79 80/88/80 78/86/78 
f 79/87/79 64/70/64 63/69/63 80/88/80 
f 81/89/81 82/90/82 83/91/83 84/92/84 
f 85/93/85 86/94/86 82/90/82 81/89/81 
f 87/95/87 88/96/88 86/97/86 85/98/85 
f 87/95/87 89/99/89 90/100/90 88/96/88 
f 91/99/91 92/101/92 93/102/93 94/100/94 
f 95/103/95 96/104/96 93/102/93 92/101/92 
f 97/105/97 98/106/98 99/104/99 100/103/100 
f 101/107/101 102/108/102 98/106/98 97/105/97 
f 101/107/101 103/109/103 104/110/104 102/108/102 
f 103/109/103 84/92/84 83/91/83 104/110/104 
f 105/111/105 106/112/106 107/113/107 108/114/108 
f 106/112/106 109/115/109 110/116/110 107/113/107 
f 111/117/111 112/118/112 110/119/110 109/120/109 
f 113/121/113 114/122/114 112/118/112 111/117/111 
f 115/123/115 116/124/116 117/122/117 118/121/118 
f 115/123/115 119/125/119 120/126/120 116/124/116 
f 121/125/121 122/127/122 123/128/123 124/126/124 
f 125/129/125 126/130/126 123/128/123 122/127/122 
f 127/131/127 128/132/128 126/130/126 125/129/125 
f 105/111/105 108/114/108 128/132/128 127/131/127 
f 2/2/2 22/24/22 21/23/21 3/3/3 
f 6/6/6 25/27/25 22/24/22 2/2/2 
f 27/29/27 25/32/25 6/9/6 8/8/8 
f 29/33/29 27/29/27 8/8/8 10/12/10 
f 31/35/31 29/33/29 10/12/10 12/14/12 
f 14/16/14 33/37/33 31/35/31 12/14/12 
f 16/18/16 35/39/35 33/37/33 14/16/14 
f 37/41/37 35/39/35 16/18/16 18/20/18 
f 39/43/39 37/41/37 18/20/18 20/22/20 
f 21/23/21 39/43/39 20/22/20 3/3/3 
f 42/46/42 41/45/41 24/26/24 23/25/23 
f 45/49/45 42/46/42 23/25/23 26/28/26 
f 47/51/47 45/54/45 26/31/26 28/30/28 
f 30/34/30 49/55/49 47/51/47 28/30/28 
f 32/36/32 51/57/51 49/55/49 30/34/30 
f 53/59/53 51/57/51 32/36/32 34/38/34 
f 55/61/55 53/59/53 34/38/34 36/40/36 
f 57/63/57 55/61/55 36/40/36 38/42/38 
f 40/44/40 59/65/59 57/63/57 38/42/38 
f 24/26/24 41/45/41 59/65/59 40/44/40 
f 61/67/61 64/70/64 44/48/44 43/47/43 
f 65/71/65 61/67/61 43/47/43 46/50/46 
f 67/73/67 65/76/65 46/53/46 48/52/48 
f 50/56/50 69/77/69 67/73/67 48/52/48 
f 52/58/52 71/79/71 69/77/69 50/56/50 
f 73/81/73 71/79/71 52/58/52 54/60/54 
f 75/83/75 73/81/73 54/60/54 56/62/56 
f 77/85/77 75/83/75 56/62/56 58/64/58 
f 60/66/60 79/87/79 77/85/77 58/64/58 
f 44/48/44 64/70/64 79/87/79 60/66/60 
f 62/68/62 81/89/81 84/92/84 63/69/63 
f 66/72/66 85/93/85 81/89/81 62/68/62 
f 87/95/87 85/98/85 66/75/66 68/74/68 
f 89/99/89 87/95/87 68/74/68 70/78/70 
f 92/101/92 91/99/91 129/78/129 130/80/130 
f 131/82/131 95/103/95 92/101/92 130/80/130 
f 76/84/76 97/105/97 100/103/100 74/82/74 
f 101/107/101 97/105/97 76/84/76 78/86/78 
f 103/109/103 101/107/101 78/86/78 80/88/80 
f 84/92/84 103/109/103 80/88/80 63/69/63 
f 82/90/82 106/112/106 105/111/105 83/91/83 
f 86/94/86 109/115/109 106/112/106 82/90/82 
f 111/117/111 109/120/109 86/97/86 88/96/88 
f 113/121/113 111/117/111 88/96/88 90/100/90 
f 115/123/115 118/121/118 94/100/94 93/102/93 
f 96/104/96 119/125/119 115/123/115 93/102/93 
f 98/106/98 122/127/122 121/125/121 99/104/99 
f 125/129/125 122/127/122 98/106/98 102/108/102 
f 127/131/127 125/129/125 102/108/102 104/110/104 
f 105/111/105 127/131/127 104/110/104 83/91/83 
f 132/133/132 133/134/133 108/114/108 107/113/107 
f 134/135/134 132/133/132 107/113/107 110/116/110 
f 135/136/135 134/137/134 110/119/110 112/118/112 
f 114/122/114 136/138/136 135/136/135 112/118/112 
f 137/124/137 138/139/138 136/138/136 114/122/114 
f 139/140/139 138/139/138 137/124/137 124/126/124 
f 140/141/140 139/140/139 124/126/124 123/128/123 
f 141/142/141 140/141/140 123/128/123 126/130/126 
f 128/132/128 142/143/142 141/142/141 126/130/126 
f 108/114/108 133/134/133 142/143/142 128/132/128 
s off
f 133/134/133 132/133/132 143/133/143 144/134/144 
f 132/133/132 134/135/134 145/135/145 143/133/143 
f 134/135/134 135/144/135 146/144/146 145/135/145 
f 135/144/135 136/145/136 147/145/147 146/144/146 
f 136/145/136 138/146/138 148/146/148 147/145/147 
f 138/146/138 139/147/139 149/147/149 148/146/148 
f 139/147/139 140/148/140 150/148/150 149/147/149 
f 140/148/140 141/149/141 151/149/151 150/148/150 
f 141/149/141 142/143/142 152/143/152 151/149/151 
f 142/143/142 133/134/133 144/134/144 152/143/152 
f 4/4/4 153/150/153 154/151/154 1/1/1 
f 19/152/19 155/153/155 153/150/153 4/4/4 
f 17/154/17 156/155/156 155/153/155 19/152/19 
f 15/156/15 157/157/157 156/155/156 17/154/17 
f 13/158/13 158/159/158 157/157/157 15/156/15 
f 11/160/11 159/161/159 158/159/158 13/158/13 
f 9/162/9 160/163/160 159/161/159 11/160/11 
f 7/164/7 161/165/161 160/163/160 9/162/9 
f 5/5/5 162/166/162 161/165/161 7/164/7 
f 5/5/5 1/1/1 154/151/154 162/166/162 
f 153/150/153 163/167/163 154/151/154 
f 155/153/155 163/167/163 153/150/153 
f 156/155/156 163/167/163 155/153/155 
f 157/157/157 163/167/163 156/155/156 
f 158/159/158 163/167/163 157/157/157 
f 159/161/159 163/167/163 158/159/158 
f 160/163/160 163/167/163 159/161/159 
f 161/165/161 163/167/163 160/163/160 
f 162/166/162 163/167/163 161/165/161 
f 154/151/154 163/167/163 162/166/162 
f 144/134/144 143/133/143 164/168/164 
f 143/133/143 145/135/145 164/168/164 
f 145/135/145 146/144/146 164/168/164 
f 146/144/146 147/145/147 164/168/164 
f 147/145/147 148/146/148 164/168/164 
f 148/146/148 149/147/149 164/168/164 
f 149/147/149 150/148/150 164/168/164 
f 150/148/150 151/149/151 164/168/164 
f 151/149/151 152/143/152 164/168/164 
f 152/143/152 144/134/144 164/168/164 
f 90/100/90 89/99/89 91/99/91 94/100/94 
f 89/99/89 70/78/70 129/78/129 91/99/91 
f 70/78/70 72/80/72 130/80/130 129/78/129 
f 72/80/72 74/82/74 131/82/131 130/80/130 
f 74/82/74 100/103/100 95/103/95 131/82/131 
f 100/103/100 99/104/99 96/104/96 95/103/95 
f 99/104/99 121/125/121 119/125/119 96/104/96 
f 121/125/121 124/126/124 120/126/120 119/125/119 
f 124/126/124 137/124/137 120/126/120 
f 137/124/137 117/122/117 116/124/116 
f 114/122/114 113/121/113 118/121/118 117/122/117 
f 113/121/113 90/100/90 94/100/94 118/121/118 
f 137/124/137 116/124/116 120/126/120 
f 137/124/137 114/122/114 117/122/117 
# 150 polygons - 24 triangles

