# 3ds Max Wavefront OBJ Exporter v0.99 - (c)2007 guruware
# File Created: 25.01.2025 00:44:10

mtllib P_Dentifrice.mtl

#
# object P_Dentifrice
#

v  -3.6681 -29.4503 30.9423
v  -4.5340 -29.4503 0.0000
v  4.5340 -29.4503 0.0000
v  3.6681 -29.4503 30.9423
v  3.6681 -29.4503 -30.9423
v  8.6445 -3.2123 -30.1255
v  10.6852 -3.2123 0.0000
v  1.4011 -29.4503 -50.0657
v  3.3019 -3.2123 -48.7440
v  -1.4011 -29.4503 -50.0657
v  -3.3019 -3.2123 -48.7440
v  -3.6681 -29.4503 -30.9423
v  -8.6445 -3.2123 -30.1255
v  -10.6852 -3.2123 0.0000
v  -8.6445 -3.2123 30.1255
v  -1.4011 -29.4503 50.0657
v  -3.3019 -3.2123 48.7440
v  1.4011 -29.4503 50.0657
v  3.3019 -3.2123 48.7440
v  8.6445 -3.2123 30.1254
v  12.1135 27.8585 -29.0805
v  14.9731 27.8585 -0.0000
v  4.6269 27.8585 -47.0532
v  -4.6269 27.8585 -47.0532
v  -12.1135 27.8585 -29.0805
v  -14.9731 27.8585 0.0000
v  -12.1135 27.8585 29.0805
v  -4.6269 27.8585 47.0532
v  4.6269 27.8585 47.0532
v  12.1135 27.8585 29.0805
v  14.1200 60.5638 -28.3451
v  17.4533 60.5638 -0.0000
v  5.3934 60.5638 -45.8634
v  -5.3934 60.5638 -45.8634
v  -14.1200 60.5638 -28.3451
v  -17.4533 60.5638 0.0000
v  -14.1200 60.5638 28.3451
v  -5.3934 60.5638 45.8634
v  5.3934 60.5638 45.8634
v  14.1200 60.5638 28.3451
v  16.5966 90.1282 -27.7665
v  20.5145 90.1282 -0.0000
v  6.3393 90.1282 -44.9271
v  -6.3393 90.1282 -44.9271
v  -16.5966 90.1282 -27.7664
v  -20.5145 90.1282 0.0000
v  -16.5966 90.1282 27.7665
v  -6.3393 90.1282 44.9271
v  6.3393 90.1282 44.9271
v  16.5966 90.1282 27.7664
v  19.7253 112.6065 -26.7379
v  24.3819 112.6065 -0.0000
v  7.5344 112.6065 -43.2628
v  -7.5344 112.6065 -43.2628
v  -19.7253 112.6065 -26.7379
v  -24.3819 112.6065 0.0000
v  -19.7253 112.6065 26.7379
v  -7.5344 112.6065 43.2628
v  7.5344 112.6065 43.2628
v  19.7253 112.6065 26.7379
v  22.2915 136.3314 -24.5816
v  27.5538 136.3314 -0.0000
v  8.5146 136.3314 -39.7739
v  -8.5146 136.3314 -39.7739
v  -22.2915 136.3314 -24.5816
v  -27.5538 136.3314 0.0000
v  -22.2915 136.3314 24.5816
v  -8.5146 136.3314 39.7739
v  8.5146 136.3314 39.7739
v  22.2915 136.3314 24.5816
v  25.1845 160.6887 -17.8682
v  31.1297 160.6887 -0.0000
v  9.6196 160.6887 -28.9114
v  -9.6196 160.6887 -28.9114
v  -25.1845 160.6887 -17.8682
v  -31.1297 160.6887 0.0000
v  -25.1845 160.6887 17.8682
v  -9.6196 160.6887 28.9114
v  9.6196 160.6887 28.9114
v  25.1845 160.6887 17.8682
v  21.4231 160.6887 -15.0825
v  26.4415 160.6887 0.0000
v  8.2018 160.6887 -24.4629
v  -8.2018 160.6887 -24.4629
v  -21.4231 160.6887 -15.0825
v  -26.4415 160.6887 0.0000
v  -21.4231 160.6887 15.0825
v  -8.2018 160.6887 24.4629
v  8.2018 160.6887 24.4629
v  21.4231 160.6887 15.0825
v  21.4231 162.2105 -15.0825
v  26.4415 162.2105 0.0000
v  8.2018 162.2105 -24.4629
v  -8.2018 162.2105 -24.4629
v  -21.4231 162.2105 -15.0825
v  -26.4415 162.2105 0.0000
v  -21.4231 162.2105 15.0825
v  -8.2018 162.2105 24.4629
v  8.2018 162.2105 24.4629
v  21.4231 162.2105 15.0825
v  24.4916 162.9129 -17.3551
v  30.2661 162.9129 -0.0000
v  9.3584 162.9129 -28.0920
v  -9.3584 162.9129 -28.0920
v  -24.4916 162.9129 -17.3551
v  -30.2661 162.9129 0.0000
v  -24.4916 162.9129 17.3551
v  -9.3584 162.9129 28.0920
v  9.3584 162.9129 28.0920
v  24.4916 162.9129 17.3551
v  24.4916 191.9452 -17.3551
v  30.2661 191.9452 -0.0000
v  9.3584 191.9452 -28.0920
v  -9.3584 191.9452 -28.0920
v  -24.4916 191.9452 -17.3551
v  -30.2661 191.9452 0.0000
v  -24.4916 191.9452 17.3551
v  -9.3584 191.9452 28.0920
v  9.3584 191.9452 28.0920
v  24.4916 191.9452 17.3551
v  0.0000 191.9452 -0.0000
# 121 vertices

vn -0.6477 -0.7604 0.0482
vn -0.6279 -0.7783 0.0000
vn 0.6279 -0.7783 -0.0000
vn 0.6477 -0.7604 0.0482
vn 0.6477 -0.7604 -0.0482
vn 0.9752 -0.1408 -0.1707
vn 0.9832 -0.1823 -0.0000
vn 0.5152 -0.5864 -0.6251
vn 0.6051 0.0066 -0.7961
vn -0.5152 -0.5864 -0.6251
vn -0.6051 0.0066 -0.7961
vn -0.6477 -0.7604 -0.0482
vn -0.9752 -0.1408 -0.1707
vn -0.9832 -0.1823 0.0000
vn -0.9752 -0.1408 0.1707
vn -0.5152 -0.5864 0.6251
vn -0.6051 0.0066 0.7961
vn 0.5152 -0.5864 0.6251
vn 0.6051 0.0066 0.7961
vn 0.9752 -0.1408 0.1707
vn 0.9672 -0.0767 -0.2422
vn 0.9944 -0.1060 -0.0000
vn 0.5587 0.0190 -0.8292
vn -0.5587 0.0190 -0.8292
vn -0.9672 -0.0767 -0.2422
vn -0.9944 -0.1060 0.0000
vn -0.9672 -0.0767 0.2422
vn -0.5587 0.0190 0.8292
vn 0.5587 0.0190 0.8292
vn 0.9672 -0.0767 0.2422
vn 0.9563 -0.0635 -0.2853
vn 0.9960 -0.0894 -0.0000
vn 0.5258 0.0144 -0.8505
vn -0.5258 0.0144 -0.8505
vn -0.9563 -0.0635 -0.2853
vn -0.9960 -0.0894 0.0000
vn -0.9563 -0.0635 0.2853
vn -0.5258 0.0144 0.8505
vn 0.5258 0.0144 0.8505
vn 0.9563 -0.0635 0.2853
vn 0.9378 -0.0937 -0.3343
vn 0.9906 -0.1368 -0.0000
vn 0.4883 0.0256 -0.8723
vn -0.4883 0.0256 -0.8723
vn -0.9378 -0.0937 -0.3343
vn -0.9906 -0.1368 0.0000
vn -0.9378 -0.0937 0.3343
vn -0.4883 0.0256 0.8723
vn 0.4883 0.0256 0.8723
vn 0.9378 -0.0937 0.3343
vn 0.9151 -0.0857 -0.3941
vn 0.9886 -0.1508 -0.0000
vn 0.4480 0.0767 -0.8907
vn -0.4480 0.0767 -0.8907
vn -0.9151 -0.0857 -0.3941
vn -0.9886 -0.1508 0.0000
vn -0.9151 -0.0857 0.3941
vn -0.4480 0.0767 0.8907
vn 0.4480 0.0767 0.8907
vn 0.9151 -0.0857 0.3941
vn 0.8836 -0.0115 -0.4681
vn 0.9903 -0.1390 -0.0000
vn 0.3875 0.2371 -0.8908
vn -0.3875 0.2371 -0.8908
vn -0.8836 -0.0115 -0.4681
vn -0.9903 -0.1390 0.0000
vn -0.8836 -0.0115 0.4681
vn -0.3875 0.2371 0.8908
vn 0.3875 0.2371 0.8908
vn 0.8836 -0.0115 0.4681
vn 0.6266 0.6623 -0.4108
vn 0.8096 0.5870 -0.0000
vn 0.2110 0.7801 -0.5890
vn -0.2110 0.7801 -0.5890
vn -0.6266 0.6623 -0.4108
vn -0.8096 0.5870 0.0000
vn -0.6266 0.6623 0.4108
vn -0.2110 0.7801 0.5890
vn 0.2110 0.7801 0.5890
vn 0.6266 0.6623 0.4108
vn 0.4986 0.7843 -0.3693
vn 0.6188 0.7856 -0.0000
vn 0.1892 0.7823 -0.5935
vn -0.1892 0.7823 -0.5935
vn -0.4986 0.7843 -0.3693
vn -0.6188 0.7855 0.0000
vn -0.4986 0.7843 0.3693
vn -0.1892 0.7823 0.5935
vn 0.1892 0.7823 0.5935
vn 0.4985 0.7843 0.3693
vn 0.5660 -0.7099 -0.4192
vn 0.7029 -0.7113 -0.0000
vn 0.2145 -0.7079 -0.6730
vn -0.2145 -0.7079 -0.6730
vn -0.5660 -0.7099 -0.4192
vn -0.7030 -0.7112 0.0000
vn -0.5660 -0.7099 0.4192
vn -0.2145 -0.7079 0.6730
vn 0.2145 -0.7079 0.6730
vn 0.5659 -0.7099 0.4192
vn 0.6525 -0.5838 -0.4832
vn 0.8124 -0.5831 -0.0000
vn 0.2463 -0.5848 -0.7729
vn -0.2463 -0.5848 -0.7729
vn -0.6525 -0.5838 -0.4832
vn -0.8124 -0.5831 0.0000
vn -0.6525 -0.5838 0.4832
vn -0.2463 -0.5848 0.7729
vn 0.2463 -0.5848 0.7729
vn 0.6524 -0.5838 0.4832
vn 0.6152 0.6433 -0.4556
vn 0.7663 0.6424 0.0000
vn 0.2321 0.6447 -0.7283
vn -0.2321 0.6447 -0.7283
vn -0.6152 0.6433 -0.4556
vn -0.7663 0.6425 0.0000
vn -0.6152 0.6433 0.4556
vn -0.2321 0.6447 0.7283
vn 0.2321 0.6447 0.7283
vn 0.6152 0.6434 0.4556
vn 0.0000 1.0000 -0.0000
# 121 vertex normals

vt -0.2000 0.0000 -1.0000
vt 0.2674 0.0000 -0.6180
vt -2.3153 0.0000 -1.6183
vt 0.1764 0.0000 -0.0001
vt 0.7500 0.0000 1.0000
vt 0.8500 0.0000 1.0000
vt 0.8500 0.1429 1.0000
vt 0.7500 0.1429 1.0000
vt 0.9500 0.0000 1.0000
vt 0.9500 0.1429 1.0000
vt -0.0500 0.0000 1.0000
vt 0.0500 0.0000 1.0000
vt 0.0500 0.1429 1.0000
vt -0.0500 0.1429 1.0000
vt 0.1500 0.0000 1.0000
vt 0.1500 0.1429 1.0000
vt 0.2500 0.0000 1.0000
vt 0.2500 0.1429 1.0000
vt 0.3500 0.0000 1.0000
vt 0.3500 0.1429 1.0000
vt 0.4500 0.0000 1.0000
vt 0.4500 0.1429 1.0000
vt 0.5500 0.0000 1.0000
vt 0.5500 0.1429 1.0000
vt 0.6500 0.0000 1.0000
vt 0.6500 0.1429 1.0000
vt 0.8500 0.2857 1.0000
vt 0.7500 0.2857 1.0000
vt 0.9500 0.2857 1.0000
vt 0.0500 0.2857 1.0000
vt -0.0500 0.2857 1.0000
vt 0.1500 0.2857 1.0000
vt 0.2500 0.2857 1.0000
vt 0.3500 0.2857 1.0000
vt 0.4500 0.2857 1.0000
vt 0.5500 0.2857 1.0000
vt 0.6500 0.2857 1.0000
vt 0.8500 0.4286 1.0000
vt 0.7500 0.4286 1.0000
vt 0.9500 0.4286 1.0000
vt 0.0500 0.4286 1.0000
vt -0.0500 0.4286 1.0000
vt 0.1500 0.4286 1.0000
vt 0.2500 0.4286 1.0000
vt 0.3500 0.4286 1.0000
vt 0.4500 0.4286 1.0000
vt 0.5500 0.4286 1.0000
vt 0.6500 0.4286 1.0000
vt 0.8500 0.5714 1.0000
vt 0.7500 0.5714 1.0000
vt 0.9500 0.5714 1.0000
vt 0.0500 0.5714 1.0000
vt -0.0500 0.5714 1.0000
vt 0.1500 0.5714 1.0000
vt 0.2500 0.5714 1.0000
vt 0.3500 0.5714 1.0000
vt 0.4500 0.5714 1.0000
vt 0.5500 0.5714 1.0000
vt 0.6500 0.5714 1.0000
vt 0.8500 0.7143 1.0000
vt 0.7500 0.7143 1.0000
vt 0.9500 0.7143 1.0000
vt 0.0500 0.7143 1.0000
vt -0.0500 0.7143 1.0000
vt 0.1500 0.7143 1.0000
vt 0.2500 0.7143 1.0000
vt 0.3500 0.7143 1.0000
vt 0.4500 0.7143 1.0000
vt 0.5500 0.7143 1.0000
vt 0.6500 0.7143 1.0000
vt 0.8500 0.8571 1.0000
vt 0.7500 0.8571 1.0000
vt 0.9500 0.8571 1.0000
vt 0.0500 0.8571 1.0000
vt -0.0500 0.8571 1.0000
vt 0.1500 0.8571 1.0000
vt 0.2500 0.8571 1.0000
vt 0.3500 0.8571 1.0000
vt 0.4500 0.8571 1.0000
vt 0.5500 0.8571 1.0000
vt 0.6500 0.8571 1.0000
vt 0.8500 1.0000 1.0000
vt 0.7500 1.0000 1.0000
vt 0.9500 1.0000 1.0000
vt 0.0500 1.0000 1.0000
vt -0.0500 1.0000 1.0000
vt 0.1500 1.0000 1.0000
vt 0.2500 1.0000 1.0000
vt 0.3500 1.0000 1.0000
vt 0.4500 1.0000 1.0000
vt 0.5500 1.0000 1.0000
vt 0.6500 1.0000 1.0000
vt 0.4000 1.0000 1.0000
vt 0.8236 0.0000 0.0000
vt -0.2562 0.0000 -0.6180
vt -0.4000 0.0000 -1.0000
vt 1.2562 0.0000 0.6180
# 97 texture coords

o P_Dentifrice
g P_Dentifrice
usemtl wire_171096089
s 1
f 1/1/1 2/2/2 3/3/3 4/4/4 
s 8
f 3/5/3 5/6/5 6/7/6 7/8/7 
f 5/6/5 8/9/8 9/10/9 6/7/6 
f 8/11/8 10/12/10 11/13/11 9/14/9 
f 10/12/10 12/15/12 13/16/13 11/13/11 
f 12/15/12 2/17/2 14/18/14 13/16/13 
f 2/17/2 1/19/1 15/20/15 14/18/14 
f 1/19/1 16/21/16 17/22/17 15/20/15 
f 16/21/16 18/23/18 19/24/19 17/22/17 
f 18/23/18 4/25/4 20/26/20 19/24/19 
f 4/25/4 3/5/3 7/8/7 20/26/20 
f 7/8/7 6/7/6 21/27/21 22/28/22 
f 6/7/6 9/10/9 23/29/23 21/27/21 
f 9/14/9 11/13/11 24/30/24 23/31/23 
f 11/13/11 13/16/13 25/32/25 24/30/24 
f 13/16/13 14/18/14 26/33/26 25/32/25 
f 14/18/14 15/20/15 27/34/27 26/33/26 
f 15/20/15 17/22/17 28/35/28 27/34/27 
f 17/22/17 19/24/19 29/36/29 28/35/28 
f 19/24/19 20/26/20 30/37/30 29/36/29 
f 20/26/20 7/8/7 22/28/22 30/37/30 
f 22/28/22 21/27/21 31/38/31 32/39/32 
f 21/27/21 23/29/23 33/40/33 31/38/31 
f 23/31/23 24/30/24 34/41/34 33/42/33 
f 24/30/24 25/32/25 35/43/35 34/41/34 
f 25/32/25 26/33/26 36/44/36 35/43/35 
f 26/33/26 27/34/27 37/45/37 36/44/36 
f 27/34/27 28/35/28 38/46/38 37/45/37 
f 28/35/28 29/36/29 39/47/39 38/46/38 
f 29/36/29 30/37/30 40/48/40 39/47/39 
f 30/37/30 22/28/22 32/39/32 40/48/40 
f 32/39/32 31/38/31 41/49/41 42/50/42 
f 31/38/31 33/40/33 43/51/43 41/49/41 
f 33/42/33 34/41/34 44/52/44 43/53/43 
f 34/41/34 35/43/35 45/54/45 44/52/44 
f 35/43/35 36/44/36 46/55/46 45/54/45 
f 36/44/36 37/45/37 47/56/47 46/55/46 
f 37/45/37 38/46/38 48/57/48 47/56/47 
f 38/46/38 39/47/39 49/58/49 48/57/48 
f 39/47/39 40/48/40 50/59/50 49/58/49 
f 40/48/40 32/39/32 42/50/42 50/59/50 
f 42/50/42 41/49/41 51/60/51 52/61/52 
f 41/49/41 43/51/43 53/62/53 51/60/51 
f 43/53/43 44/52/44 54/63/54 53/64/53 
f 44/52/44 45/54/45 55/65/55 54/63/54 
f 45/54/45 46/55/46 56/66/56 55/65/55 
f 46/55/46 47/56/47 57/67/57 56/66/56 
f 47/56/47 48/57/48 58/68/58 57/67/57 
f 48/57/48 49/58/49 59/69/59 58/68/58 
f 49/58/49 50/59/50 60/70/60 59/69/59 
f 50/59/50 42/50/42 52/61/52 60/70/60 
f 52/61/52 51/60/51 61/71/61 62/72/62 
f 51/60/51 53/62/53 63/73/63 61/71/61 
f 53/64/53 54/63/54 64/74/64 63/75/63 
f 54/63/54 55/65/55 65/76/65 64/74/64 
f 55/65/55 56/66/56 66/77/66 65/76/65 
f 56/66/56 57/67/57 67/78/67 66/77/66 
f 57/67/57 58/68/58 68/79/68 67/78/67 
f 58/68/58 59/69/59 69/80/69 68/79/68 
f 59/69/59 60/70/60 70/81/70 69/80/69 
f 60/70/60 52/61/52 62/72/62 70/81/70 
f 62/72/62 61/71/61 71/82/71 72/83/72 
f 61/71/61 63/73/63 73/84/73 71/82/71 
f 63/75/63 64/74/64 74/85/74 73/86/73 
f 64/74/64 65/76/65 75/87/75 74/85/74 
f 65/76/65 66/77/66 76/88/76 75/87/75 
f 66/77/66 67/78/67 77/89/77 76/88/76 
f 67/78/67 68/79/68 78/90/78 77/89/77 
f 68/79/68 69/80/69 79/91/79 78/90/78 
f 69/80/69 70/81/70 80/92/80 79/91/79 
f 70/81/70 62/72/62 72/83/72 80/92/80 
s off
f 72/83/72 71/82/71 81/82/81 82/83/82 
f 71/82/71 73/86/73 83/86/83 81/82/81 
f 73/86/73 74/85/74 84/85/84 83/86/83 
f 74/85/74 75/87/75 85/87/85 84/85/84 
f 75/87/75 76/88/76 86/88/86 85/87/85 
f 76/88/76 77/89/77 87/89/87 86/88/86 
f 77/89/77 78/90/78 88/90/88 87/89/87 
f 78/90/78 79/91/79 89/91/89 88/90/88 
f 79/91/79 80/92/80 90/92/90 89/91/89 
f 80/92/80 72/83/72 82/83/82 90/92/90 
f 82/83/82 81/82/81 91/82/91 92/83/92 
f 81/82/81 83/86/83 93/86/93 91/82/91 
f 83/86/83 84/85/84 94/85/94 93/86/93 
f 84/85/84 85/87/85 95/87/95 94/85/94 
f 85/87/85 86/88/86 96/88/96 95/87/95 
f 86/88/86 87/89/87 97/89/97 96/88/96 
f 87/89/87 88/90/88 98/90/98 97/89/97 
f 88/90/88 89/91/89 99/91/99 98/90/98 
f 89/91/89 90/92/90 100/92/100 99/91/99 
f 90/92/90 82/83/82 92/83/92 100/92/100 
f 92/83/92 91/82/91 101/82/101 102/83/102 
f 91/82/91 93/86/93 103/86/103 101/82/101 
f 93/86/93 94/85/94 104/85/104 103/86/103 
f 94/85/94 95/87/95 105/87/105 104/85/104 
f 95/87/95 96/88/96 106/88/106 105/87/105 
f 96/88/96 97/89/97 107/89/107 106/88/106 
f 97/89/97 98/90/98 108/90/108 107/89/107 
f 98/90/98 99/91/99 109/91/109 108/90/108 
f 99/91/99 100/92/100 110/92/110 109/91/109 
f 100/92/100 92/83/92 102/83/102 110/92/110 
f 102/83/102 101/82/101 111/82/111 112/83/112 
f 101/82/101 103/86/103 113/86/113 111/82/111 
f 103/86/103 104/85/104 114/85/114 113/86/113 
f 104/85/104 105/87/105 115/87/115 114/85/114 
f 105/87/105 106/88/106 116/88/116 115/87/115 
f 106/88/106 107/89/107 117/89/117 116/88/116 
f 107/89/107 108/90/108 118/90/118 117/89/117 
f 108/90/108 109/91/109 119/91/119 118/90/118 
f 109/91/109 110/92/110 120/92/120 119/91/119 
f 110/92/110 102/83/102 112/83/112 120/92/120 
f 112/83/112 111/82/111 121/93/121 
f 111/82/111 113/86/113 121/93/121 
f 113/86/113 114/85/114 121/93/121 
f 114/85/114 115/87/115 121/93/121 
f 115/87/115 116/88/116 121/93/121 
f 116/88/116 117/89/117 121/93/121 
f 117/89/117 118/90/118 121/93/121 
f 118/90/118 119/91/119 121/93/121 
f 119/91/119 120/92/120 121/93/121 
f 120/92/120 112/83/112 121/93/121 
s 1
f 12/94/12 5/6/5 3/3/3 2/2/2 
f 18/95/18 16/96/16 1/1/1 4/4/4 
f 12/94/12 10/97/10 8/9/8 5/6/5 
# 114 polygons - 10 triangles

