# 3ds Max Wavefront OBJ Exporter v0.99 - (c)2007 guruware
# File Created: 25.01.2025 00:44:11

mtllib P_PotBrosseADent.mtl

#
# object P_PotBrosseADent
#

v  28.0872 0.0000 -0.0000
v  22.7230 0.0000 -16.5092
v  15.9195 65.9634 -11.5662
v  19.6775 65.9634 -0.0000
v  8.6794 0.0000 -26.7125
v  6.0807 65.9634 -18.7144
v  -8.6794 0.0000 -26.7125
v  -6.0807 65.9634 -18.7144
v  -22.7230 0.0000 -16.5092
v  -15.9195 65.9634 -11.5662
v  -28.0872 0.0000 0.0000
v  -19.6775 65.9634 0.0000
v  -22.7230 0.0000 16.5092
v  -15.9194 65.9634 11.5662
v  -8.6794 0.0000 26.7125
v  -6.0807 65.9634 18.7144
v  8.6794 0.0000 26.7125
v  6.0807 65.9634 18.7144
v  22.7230 0.0000 16.5092
v  15.9195 65.9634 11.5662
v  13.6128 65.9634 -9.8903
v  16.8264 65.9634 0.0000
v  5.1996 65.9634 -16.0028
v  -5.1996 65.9634 -16.0028
v  -13.6128 65.9634 -9.8903
v  -16.8264 65.9634 0.0000
v  -13.6128 65.9634 9.8903
v  -5.1996 65.9634 16.0028
v  5.1996 65.9634 16.0028
v  13.6128 65.9634 9.8903
v  19.1333 4.0905 -13.9011
v  23.6500 4.0905 -0.0000
v  7.3083 4.0905 -22.4925
v  -7.3083 4.0905 -22.4925
v  -19.1333 4.0905 -13.9011
v  -23.6500 4.0905 0.0000
v  -19.1333 4.0905 13.9011
v  -7.3083 4.0905 22.4925
v  7.3083 4.0905 22.4925
v  19.1333 4.0905 13.9011
v  0.0000 4.0905 -0.0000
v  0.0000 0.0000 -0.0000
# 42 vertices

vn 0.8033 -0.5956 -0.0000
vn 0.6499 -0.5956 -0.4722
vn 0.5853 0.6904 -0.4252
vn 0.7235 0.6904 -0.0000
vn 0.2482 -0.5956 -0.7640
vn 0.2236 0.6904 -0.6881
vn -0.2482 -0.5956 -0.7640
vn -0.2236 0.6904 -0.6881
vn -0.6499 -0.5956 -0.4722
vn -0.5853 0.6904 -0.4252
vn -0.8033 -0.5956 -0.0000
vn -0.7235 0.6904 0.0000
vn -0.6499 -0.5956 0.4722
vn -0.5853 0.6904 0.4252
vn -0.2482 -0.5956 0.7640
vn -0.2236 0.6904 0.6881
vn 0.2482 -0.5956 0.7640
vn 0.2236 0.6904 0.6881
vn 0.6499 -0.5956 0.4722
vn 0.5853 0.6904 0.4252
vn -0.5357 0.7493 0.3892
vn -0.6622 0.7493 0.0000
vn -0.2046 0.7493 0.6298
vn 0.2046 0.7493 0.6298
vn 0.5357 0.7493 0.3892
vn 0.6622 0.7493 -0.0000
vn 0.5357 0.7493 -0.3892
vn 0.2046 0.7493 -0.6298
vn -0.2046 0.7493 -0.6298
vn -0.5357 0.7493 -0.3892
vn -0.6459 0.6021 0.4693
vn -0.7984 0.6021 0.0000
vn -0.2467 0.6021 0.7593
vn 0.2467 0.6021 0.7593
vn 0.6459 0.6021 0.4693
vn 0.7984 0.6021 0.0000
vn 0.6459 0.6021 -0.4693
vn 0.2467 0.6021 -0.7593
vn -0.2467 0.6021 -0.7593
vn -0.6459 0.6021 -0.4693
vn 0.0000 1.0000 -0.0000
vn 0.0000 -1.0000 -0.0000
# 42 vertex normals

vt 0.7500 0.0000 1.0000
vt 0.8500 0.0000 1.0000
vt 0.8500 1.0000 0.7006
vt 0.7500 1.0000 0.7006
vt 0.9500 0.0000 1.0000
vt 0.9500 1.0000 0.7006
vt -0.0500 0.0000 1.0000
vt 0.0500 0.0000 1.0000
vt 0.0500 1.0000 0.7006
vt -0.0500 1.0000 0.7006
vt 0.1500 0.0000 1.0000
vt 0.1500 1.0000 0.7006
vt 0.2500 0.0000 1.0000
vt 0.2500 1.0000 0.7006
vt 0.3500 0.0000 1.0000
vt 0.3500 1.0000 0.7006
vt 0.4500 0.0000 1.0000
vt 0.4500 1.0000 0.7006
vt 0.5500 0.0000 1.0000
vt 0.5500 1.0000 0.7006
vt 0.6500 0.0000 1.0000
vt 0.6500 1.0000 0.7006
vt 0.8781 1.0000 0.4330
vt 0.6618 1.0000 0.0000
vt 0.3837 1.0000 -0.4330
vt 0.1500 1.0000 -0.7006
vt 0.0500 1.0000 -0.7006
vt 0.1219 1.0000 -0.4330
vt 0.5445 1.0000 0.0968
vt 0.5134 0.0000 0.0382
vt 0.3382 0.0000 0.0000
vt 0.1219 0.0000 -0.6180
vt 0.0500 0.0000 -1.0000
vt 0.1500 0.0000 -1.0000
vt 0.3837 0.0000 -0.6180
vt 0.6618 0.0000 -0.0000
vt 0.8781 0.0000 0.6180
# 37 texture coords

o P_PotBrosseADent
g P_PotBrosseADent
usemtl wire_171096089
s 8
f 1/1/1 2/2/2 3/3/3 4/4/4 
f 2/2/2 5/5/5 6/6/6 3/3/3 
f 5/7/5 7/8/7 8/9/8 6/10/6 
f 7/8/7 9/11/9 10/12/10 8/9/8 
f 9/11/9 11/13/11 12/14/12 10/12/10 
f 11/13/11 13/15/13 14/16/14 12/14/12 
f 13/15/13 15/17/15 16/18/16 14/16/14 
f 15/17/15 17/19/17 18/20/18 16/18/16 
f 17/19/17 19/21/19 20/22/20 18/20/18 
f 19/21/19 1/1/1 4/4/4 20/22/20 
s off
f 4/4/4 3/3/3 21/3/21 22/4/22 
f 3/3/3 6/6/6 23/6/23 21/3/21 
f 6/6/6 8/23/8 24/23/24 23/6/23 
f 8/23/8 10/24/10 25/24/25 24/23/24 
f 10/24/10 12/25/12 26/25/26 25/24/25 
f 12/25/12 14/26/14 27/26/27 26/25/26 
f 14/26/14 16/27/16 28/27/28 27/26/27 
f 16/27/16 18/28/18 29/28/29 28/27/28 
f 18/28/18 20/22/20 30/22/30 29/28/29 
f 20/22/20 4/4/4 22/4/22 30/22/30 
f 22/4/22 21/3/21 31/3/31 32/4/32 
f 21/3/21 23/6/23 33/6/33 31/3/31 
f 23/6/23 24/23/24 34/23/34 33/6/33 
f 24/23/24 25/24/25 35/24/35 34/23/34 
f 25/24/25 26/25/26 36/25/36 35/24/35 
f 26/25/26 27/26/27 37/26/37 36/25/36 
f 27/26/27 28/27/28 38/27/38 37/26/37 
f 28/27/28 29/28/29 39/28/39 38/27/38 
f 29/28/29 30/22/30 40/22/40 39/28/39 
f 30/22/30 22/4/22 32/4/32 40/22/40 
f 32/4/32 31/3/31 41/29/41 
f 31/3/31 33/6/33 41/29/41 
f 33/6/33 34/23/34 41/29/41 
f 34/23/34 35/24/35 41/29/41 
f 35/24/35 36/25/36 41/29/41 
f 36/25/36 37/26/37 41/29/41 
f 37/26/37 38/27/38 41/29/41 
f 38/27/38 39/28/39 41/29/41 
f 39/28/39 40/22/40 41/29/41 
f 40/22/40 32/4/32 41/29/41 
f 2/2/2 1/1/1 42/30/42 
f 1/1/1 19/31/19 42/30/42 
f 19/31/19 17/32/17 42/30/42 
f 17/32/17 15/33/15 42/30/42 
f 15/33/15 13/34/13 42/30/42 
f 13/34/13 11/35/11 42/30/42 
f 11/35/11 9/36/9 42/30/42 
f 9/36/9 7/37/7 42/30/42 
f 7/37/7 5/5/5 42/30/42 
f 5/5/5 2/2/2 42/30/42 
# 30 polygons - 20 triangles

